<svg width="881" height="681" viewBox="0 0 881 681" fill="none" xmlns="http://www.w3.org/2000/svg">
<path d="M741.991 54.4805C809.103 100.189 840.163 180.743 861.239 264.918C882.87 349.094 893.408 436.437 857.357 516.086C821.859 595.283 739.218 666.334 646.038 679.006C552.858 691.225 449.14 644.612 339.321 612.028C229.502 579.444 113.582 560.437 53.126 502.51C-7.32994 444.13 -12.3217 346.831 18.7382 263.108C49.2435 179.386 115.801 109.692 197.333 65.7944C278.311 21.8966 374.264 4.24695 472.99 0.626512C572.271 -2.99393 674.879 8.31995 741.991 54.4805Z" fill="url(#paint0_linear_48_98)"/>
<defs>
<linearGradient id="paint0_linear_48_98" x1="1036.82" y1="-128.434" x2="-173.778" y2="825.217" gradientUnits="userSpaceOnUse">
<stop stop-color="#0283E9" offset="-18.13%" />
<stop stop-color="#FC01CA" offset="120.27%" />
</linearGradient>
</defs>
</svg>
